o COL_6
v 110 20 6.1E-05
v 110 20 -700
v 100.003 20 -700
v 100 20 -700.2119
v 100 20 6.1E-05
v -110 20 6.1E-05
v -100.003 20 -700
v -110 20 -700
v -100 20 6.1E-05
v -100 20 -700.2119
v 100 0 -700
v -100 0 6.103516E-05
v 100 0 6.103516E-05
v -100 0 -700
vn 0 1 0
usemtl COL_6
f 1//1 2//1 3//1
f 1//1 4//1 5//1
f 6//1 7//1 8//1
f 6//1 9//1 10//1
f 11//1 12//1 13//1
f 11//1 14//1 12//1
o COL_26
v -110 20 6.1E-05
v -110 -9.999998 -699.9629
v -110 -10 6.1E-05
v -110 20 -700
v -110 -10.00159 -700
v 110 20 6.1E-05
v 110 -10.00159 -700
v 110 20 -700
v 110 -10 6.1E-05
v 110 -9.999998 -699.9629
v 100 0 -700
v 100 0 6.103516E-05
v 100 20.00023 6.103516E-05
v 100 20 -0.008056641
v 100 20 -700
v -100 0 6.1E-05
v -100 0 -700
v -100 20.00023 -700
v -100 20 -699.9919
v -100 20 6.1E-05
vn -1 0 0
vn 1 0 0
usemtl COL_26
f 15//2 16//2 17//2
f 15//2 18//2 19//2
f 20//3 21//3 22//3
f 20//3 23//3 24//3
f 25//2 26//2 27//2
f 25//2 28//2 29//2
f 30//3 31//3 32//3
f 30//3 33//3 34//3
