o COL_6
v 160 20 -700
v 150 20 -700
v 150 20 0.2119141
v 150.003 20 0
v 160 20 0
v -160 20 -700
v -150 20 0.2119141
v -150 20 -700
v -160 20 0
v -150.003 20 0
v 150 0 -700
v -149.9989 0 0
v 150 0 0
v -150 0 -700
v -150 0 0.002624512
vn 0 1 0
vn 0 0.9999999 0
usemtl COL_6
f 1//1 2//1 3//1
f 1//1 4//1 5//1
f 6//1 7//1 8//1
f 6//1 9//1 10//1
f 11//1 12//1 13//1
f 11//2 14//2 15//2
o COL_26
v 160 20 -700
v 160 -9.999998 -0.03704834
v 160 -10 -700
v 160 20 0
v 160 -10.00159 0
v 150 0 -700
v 150 0 0
v 150 20.00023 0
v 150 20 -0.008056641
v 150 20 -700
v -150 0 0
v -150 0 -700
v -150 20.00023 -700
v -150 20 -699.9919
v -150 20 0
v -160 20 -700
v -160 -10.00159 0
v -160 20 0
v -160 -10 -700
v -160 -9.999998 -0.03704834
vn 1 0 0
vn 0.9999999 0 0
vn -1 0 0
vn -0.9999999 0 0
usemtl COL_26
f 16//3 17//3 18//3
f 16//4 19//4 20//4
f 21//5 22//5 23//5
f 21//5 24//5 25//5
f 26//3 27//3 28//3
f 26//3 29//3 30//3
f 31//6 32//6 33//6
f 31//5 34//5 35//5
